<svg width="19" height="31" viewBox="0 0 19 31" fill="none" xmlns="http://www.w3.org/2000/svg">
<path d="M0.505983 3.61157C0.505983 2.78657 0.799482 2.08057 1.38648 1.49357C1.97448 0.905572 2.68098 0.611572 3.50598 0.611572L15.506 0.611572C16.331 0.611572 17.037 0.905572 17.624 1.49357C18.212 2.08057 18.506 2.78657 18.506 3.61157L18.506 27.6116C18.506 28.4366 18.212 29.1431 17.624 29.7311C17.037 30.3181 16.331 30.6116 15.506 30.6116L3.50598 30.6116C2.68098 30.6116 1.97448 30.3181 1.38648 29.7311C0.799481 29.1431 0.505982 28.4366 0.505982 27.6116L0.505983 3.61157ZM5.00598 9.61157C5.00598 10.0366 5.14998 10.3931 5.43798 10.6811C5.72498 10.9681 6.08098 11.1116 6.50598 11.1116L8.00598 11.1116L8.00598 12.6116C8.00598 13.0366 8.14998 13.3931 8.43798 13.6811C8.72498 13.9681 9.08098 14.1116 9.50598 14.1116C9.93098 14.1116 10.2875 13.9681 10.5755 13.6811C10.8625 13.3931 11.006 13.0366 11.006 12.6116L11.006 11.1116L12.506 11.1116C12.931 11.1116 13.2875 10.9681 13.5755 10.6811C13.8625 10.3931 14.006 10.0366 14.006 9.61157C14.006 9.18657 13.8625 8.83007 13.5755 8.54207C13.2875 8.25507 12.931 8.11157 12.506 8.11157L11.006 8.11157L11.006 6.61157C11.006 6.18657 10.8625 5.83007 10.5755 5.54207C10.2875 5.25507 9.93098 5.11157 9.50598 5.11157C9.08098 5.11157 8.72498 5.25507 8.43798 5.54207C8.14998 5.83007 8.00598 6.18657 8.00598 6.61157L8.00598 8.11157L6.50598 8.11157C6.08098 8.11157 5.72498 8.25507 5.43798 8.54207C5.14998 8.83007 5.00598 9.18657 5.00598 9.61157ZM5.00598 19.3616C5.00598 19.9866 5.22498 20.5176 5.66298 20.9546C6.09998 21.3926 6.63098 21.6116 7.25598 21.6116C7.88098 21.6116 8.41198 21.3926 8.84898 20.9546C9.28698 20.5176 9.50598 19.9866 9.50598 19.3616C9.50598 18.7366 9.28698 18.2056 8.84898 17.7686C8.41198 17.3306 7.88098 17.1116 7.25598 17.1116C6.63098 17.1116 6.09998 17.3306 5.66298 17.7686C5.22498 18.2056 5.00598 18.7366 5.00598 19.3616ZM9.50598 23.8616C9.50598 24.4866 9.72498 25.0176 10.163 25.4546C10.6 25.8926 11.131 26.1116 11.756 26.1116C12.381 26.1116 12.912 25.8926 13.349 25.4546C13.787 25.0176 14.006 24.4866 14.006 23.8616C14.006 23.2366 13.787 22.7056 13.349 22.2686C12.912 21.8306 12.381 21.6116 11.756 21.6116C11.131 21.6116 10.6 21.8306 10.163 22.2686C9.72498 22.7056 9.50598 23.2366 9.50598 23.8616Z" fill="black"/>
</svg>
